<?xml version="1.0" encoding="utf-8"?>
<!-- Generator: Adobe Illustrator 17.0.0, SVG Export Plug-In . SVG Version: 6.00 Build 0)  -->
<!DOCTYPE svg PUBLIC "-//W3C//DTD SVG 1.1//EN" "http://www.w3.org/Graphics/SVG/1.1/DTD/svg11.dtd">
<svg version="1.1" xmlns="http://www.w3.org/2000/svg" xmlns:xlink="http://www.w3.org/1999/xlink" x="0px" y="0px"
	 width="1331.456px" height="423.709px" viewBox="0 0 1331.456 423.709" enable-background="new 0 0 1331.456 423.709"
	 xml:space="preserve">
<g id="Capa_1" display="none">
	<g display="inline">
		<g>
			<g>
				<path stroke="#000000" stroke-miterlimit="10" d="M313.457,299.78c-6.213,6.196-5.744,15.492-0.748,18.156
					c4.995,2.664,9.767-1.544,13.896-9.287c4.129-7.743,7.543-23.369,0.116-21.07C321.311,289.252,320.55,292.706,313.457,299.78z"
					/>
				<path stroke="#000000" stroke-miterlimit="10" d="M368.702,299.738c6.213,6.196,5.744,15.492,0.748,18.156
					c-4.995,2.664-9.767-1.544-13.896-9.287s-7.543-23.369-0.116-21.07C360.847,289.21,361.609,292.664,368.702,299.738z"/>
			</g>
			<path stroke="#000000" stroke-miterlimit="10" d="M348.481,326.627c0,2.23-4.181,8.224-7.402,8.224s-7.402-5.995-7.402-8.224
				s4.181-2.991,7.402-2.991S348.481,324.397,348.481,326.627z"/>
			<g>
				<path stroke="#000000" stroke-miterlimit="10" d="M319.877,259.265c3.859,4.469-3.138,8.924-7.607,12.783
					s-9.897,10.131-13.756,5.662c-3.859-4.469-0.775-13.456,3.694-17.315C306.677,256.537,316.018,254.796,319.877,259.265z"/>
				<path stroke="#000000" stroke-miterlimit="10" d="M362.282,259.265c-3.859,4.469,3.138,8.924,7.607,12.783
					c4.469,3.859,9.897,10.131,13.756,5.662s0.775-13.456-3.694-17.315C375.481,256.537,366.141,254.796,362.282,259.265z"/>
			</g>
		</g>
		<g>
			<g>
				<g>
					<polygon fill="#803F90" stroke="#000000" stroke-miterlimit="10" points="353.231,408.494 341.1,420.751 328.927,408.452 
						341.079,368.904 					"/>
					
						<rect x="335.838" y="361.189" transform="matrix(-0.7071 -0.7071 0.7071 -0.7071 323.1532 866.7153)" fill="#803F90" stroke="#000000" stroke-miterlimit="10" width="10.483" height="10.483"/>
				</g>
				<g>
					<line fill="#FFFFFF" stroke="#010101" stroke-miterlimit="10" x1="337.402" y1="370.206" x2="344.815" y2="362.793"/>
					<line fill="#FFFFFF" stroke="#010101" stroke-miterlimit="10" x1="335.394" y1="367.918" x2="342.807" y2="360.505"/>
					<line fill="#FFFFFF" stroke="#010101" stroke-miterlimit="10" x1="339.721" y1="372.102" x2="347.133" y2="364.689"/>
					<line fill="#FFFFFF" stroke="#010101" stroke-miterlimit="10" x1="336.188" y1="384.694" x2="343.427" y2="377.455"/>
					<line fill="#FFFFFF" stroke="#010101" stroke-miterlimit="10" x1="334.167" y1="391.531" x2="344.669" y2="381.029"/>
					<line fill="#FFFFFF" stroke="#010101" stroke-miterlimit="10" x1="331.892" y1="398.615" x2="345.789" y2="384.718"/>
					<line fill="#FFFFFF" stroke="#010101" stroke-miterlimit="10" x1="337.891" y1="379.152" x2="342.878" y2="374.165"/>
					<line fill="#FFFFFF" stroke="#010101" stroke-miterlimit="10" x1="329.853" y1="405.564" x2="346.957" y2="388.461"/>
					<line fill="#FFFFFF" stroke="#010101" stroke-miterlimit="10" x1="330.762" y1="410.084" x2="348.272" y2="392.575"/>
					<line fill="#FFFFFF" stroke="#010101" stroke-miterlimit="10" x1="333.661" y1="413.274" x2="349.795" y2="397.14"/>
					<line fill="#FFFFFF" stroke="#010101" stroke-miterlimit="10" x1="336.308" y1="416.154" x2="351.034" y2="401.428"/>
					<line fill="#FFFFFF" stroke="#010101" stroke-miterlimit="10" x1="338.84" y1="418.688" x2="352.305" y2="405.223"/>
				</g>
			</g>
			<g>
				<g>
					<line fill="none" stroke="#000000" stroke-miterlimit="10" x1="341.29" y1="359.123" x2="364.998" y2="350.013"/>
					<line fill="none" stroke="#000000" stroke-miterlimit="10" x1="348.155" y1="366.536" x2="371.862" y2="357.426"/>
				</g>
				<g>
					<line fill="none" stroke="#000000" stroke-miterlimit="10" x1="340.868" y1="359.123" x2="317.161" y2="350.013"/>
					<line fill="none" stroke="#000000" stroke-miterlimit="10" x1="334.004" y1="366.536" x2="310.296" y2="357.426"/>
				</g>
			</g>
		</g>
	</g>
</g>
<g id="Capa_2" display="none">
	<g display="inline">
		<path fill="#785121" d="M199.722,304.888l19.023-20.842v52.522h-4.168v-41.76l-14.854,16.219l-14.855-16.219v41.76h-4.168v-52.522
			L199.722,304.888z"/>
		<path fill="#785121" d="M237.464,285.031c3.284,0,6.354,0.822,9.208,2.463c2.854,1.643,5.103,3.892,6.745,6.745
			c1.642,2.855,2.463,5.925,2.463,9.208c0,2.779-0.632,5.457-1.895,8.034c-1.263,2.577-3.006,4.725-5.229,6.442
			c-2.224,1.718-4.649,2.88-7.275,3.486l12.884,15.158h-5.532l-12.43-14.703h-3.865v14.703h-4.168v-47.369h-6.215l2.501-4.168
			H237.464z M232.538,317.696h4.926c4.244,0,7.68-1.414,10.308-4.244c2.626-2.829,3.941-6.164,3.941-10.004
			c0-2.829-0.682-5.33-2.046-7.503c-1.364-2.172-3.133-3.839-5.305-5.002c-2.173-1.162-4.472-1.743-6.897-1.743h-4.926V317.696z"/>
		<path fill="#785121" d="M259.292,332.399h4.168v4.168h-4.168V332.399z"/>
	</g>
</g>
<g id="Capa_4" display="none">
	
		<text transform="matrix(1 0 0 1 278.4251 359.568)" display="inline" fill="#785121" font-family="'BelleroseLight'" font-size="72">MR.</text>
</g>
<g id="Capa_3" display="none">
	<g display="inline">
		<path fill="#785121" d="M439.901,285.757c3.283,0,6.354,0.822,9.208,2.463c2.854,1.643,5.103,3.892,6.745,6.745
			c1.642,2.855,2.464,5.925,2.464,9.209c0,5.104-1.795,9.449-5.382,13.036c-3.588,3.588-7.933,5.381-13.035,5.381h-6.14v14.703
			h-4.168v-47.369h-6.215l2.501-4.168H439.901z M433.761,318.423h6.14c4.244,0,7.68-1.414,10.308-4.245
			c2.626-2.829,3.94-6.164,3.94-10.004c0-2.829-0.682-5.33-2.046-7.503c-1.364-2.172-3.134-3.84-5.306-5.003
			c-2.173-1.161-4.472-1.743-6.896-1.743h-6.14V318.423z"/>
		<path fill="#785121" d="M470.14,322.743v14.552h-4.169v-14.552h-5.381l2.501-4.168h2.88v-20.464c0-2.374,0.606-4.597,1.819-6.669
			c1.213-2.071,2.854-3.714,4.926-4.927c2.071-1.213,4.294-1.818,6.67-1.818c2.374,0,4.597,0.605,6.67,1.818
			c2.07,1.213,3.713,2.855,4.926,4.927c1.213,2.072,1.819,4.295,1.819,6.669v39.184h-4.169v-14.552H470.14z M470.14,318.575h18.492
			v-20.464c0-1.818-0.442-3.436-1.326-4.851c-0.885-1.414-2.034-2.501-3.448-3.259c-1.415-0.758-2.906-1.137-4.472-1.137
			c-2.729,0-4.952,0.936-6.67,2.804c-1.718,1.87-2.576,4.018-2.576,6.442V318.575z"/>
		<path fill="#785121" d="M501.517,300.612v36.683h-4.169v-52.522l21.373,37.743v-36.758h4.168v52.522L501.517,300.612z"/>
		<path fill="#785121" d="M528.8,285.757h10.005c3.638,0,7.01,0.67,10.117,2.009s5.823,3.171,8.147,5.494
			c2.323,2.325,4.155,5.04,5.495,8.147c1.338,3.107,2.008,6.48,2.008,10.118c0,4.649-1.149,8.956-3.448,12.922
			c-2.3,3.968-5.432,7.1-9.397,9.398c-3.968,2.3-8.274,3.448-12.922,3.448h-6.291v-47.369h-6.215L528.8,285.757z M538.805,333.126
			c3.94,0,7.565-0.96,10.875-2.881c3.309-1.919,5.924-4.547,7.845-7.882c1.919-3.335,2.88-6.946,2.88-10.838
			c0-2.93-0.581-5.747-1.743-8.45c-1.163-2.703-2.679-4.989-4.548-6.859c-1.869-1.869-4.156-3.385-6.858-4.548
			c-2.704-1.161-5.521-1.743-8.45-1.743h-2.123v43.201H538.805z"/>
		<path fill="#785121" d="M576.397,322.743v14.552h-4.169v-14.552h-5.381l2.501-4.168h2.88v-20.464c0-2.374,0.606-4.597,1.819-6.669
			c1.213-2.071,2.854-3.714,4.926-4.927c2.071-1.213,4.294-1.818,6.67-1.818c2.374,0,4.597,0.605,6.67,1.818
			c2.07,1.213,3.713,2.855,4.926,4.927c1.213,2.072,1.819,4.295,1.819,6.669v39.184h-4.169v-14.552H576.397z M576.397,318.575
			h18.492v-20.464c0-1.818-0.442-3.436-1.326-4.851c-0.885-1.414-2.034-2.501-3.448-3.259c-1.415-0.758-2.906-1.137-4.472-1.137
			c-2.729,0-4.952,0.936-6.67,2.804c-1.718,1.87-2.576,4.018-2.576,6.442V318.575z"/>
	</g>
</g>
<g id="Capa_5" display="none">
	
		<text transform="matrix(1 0 0 1 232.2413 360.2941)" display="inline" fill="#785121" font-family="'BelleroseLight'" font-size="72">PANDA</text>
</g>
<g id="Capa_6">
	<g>
		<g>
			<path stroke="#000000" stroke-width="2.5626" stroke-miterlimit="10" d="M438.516,111.782
				c-15.922,15.878-14.719,39.7-1.918,46.526c12.801,6.826,25.029-3.958,35.609-23.799s19.329-59.886,0.296-53.995
				C458.644,84.803,456.693,93.656,438.516,111.782z"/>
			<path stroke="#000000" stroke-width="2.5626" stroke-miterlimit="10" d="M580.086,111.781
				c15.922,15.878,14.719,39.7,1.918,46.526c-12.801,6.826-25.029-3.958-35.609-23.799c-10.58-19.842-19.329-59.886-0.296-53.995
				C559.957,84.803,561.909,93.655,580.086,111.781z"/>
		</g>
		<path stroke="#000000" stroke-width="2.5626" stroke-miterlimit="10" d="M528.269,180.686c0,5.714-10.714,21.075-18.968,21.075
			c-8.254,0-18.968-15.361-18.968-21.075s10.714-7.664,18.968-7.664C517.554,173.023,528.269,174.972,528.269,180.686z"/>
		<g>
			<path stroke="#000000" stroke-width="2.5626" stroke-miterlimit="10" d="M454.967,8.067c9.888,11.452-8.042,22.869-19.494,32.758
				c-11.452,9.888-25.361,25.962-35.25,14.51c-9.888-11.452-1.985-34.482,9.467-44.37S445.079-3.385,454.967,8.067z"/>
			<path stroke="#000000" stroke-width="2.5626" stroke-miterlimit="10" d="M563.634,8.067
				c-9.888,11.452,8.042,22.869,19.494,32.758s25.361,25.962,35.25,14.51c9.888-11.452,1.985-34.482-9.467-44.37
				C597.458,1.076,573.522-3.385,563.634,8.067z"/>
		</g>
		<g>
			<polygon fill="#803F90" stroke="#000000" stroke-width="2.5626" stroke-miterlimit="10" points="540.44,390.478 509.355,421.887 
				478.161,390.37 509.301,289.026 			"/>
			
				<line fill="#FFFFFF" stroke="#010101" stroke-width="2.5626" stroke-miterlimit="10" x1="496.766" y1="329.489" x2="515.317" y2="310.938"/>
			
				<line fill="#FFFFFF" stroke="#010101" stroke-width="2.5626" stroke-miterlimit="10" x1="491.588" y1="347.008" x2="518.5" y2="320.096"/>
			
				<line fill="#FFFFFF" stroke="#010101" stroke-width="2.5626" stroke-miterlimit="10" x1="485.757" y1="365.163" x2="521.371" y2="329.549"/>
			
				<line fill="#FFFFFF" stroke="#010101" stroke-width="2.5626" stroke-miterlimit="10" x1="501.13" y1="315.287" x2="513.909" y2="302.508"/>
			
				<line fill="#FFFFFF" stroke="#010101" stroke-width="2.5626" stroke-miterlimit="10" x1="480.533" y1="382.97" x2="524.362" y2="339.141"/>
			
				<line fill="#FFFFFF" stroke="#010101" stroke-width="2.5626" stroke-miterlimit="10" x1="482.862" y1="394.553" x2="527.732" y2="349.683"/>
			
				<line fill="#FFFFFF" stroke="#010101" stroke-width="2.5626" stroke-miterlimit="10" x1="490.29" y1="402.728" x2="531.635" y2="361.383"/>
			
				<line fill="#FFFFFF" stroke="#010101" stroke-width="2.5626" stroke-miterlimit="10" x1="497.074" y1="410.107" x2="534.81" y2="372.371"/>
			
				<line fill="#FFFFFF" stroke="#010101" stroke-width="2.5626" stroke-miterlimit="10" x1="503.564" y1="416.6" x2="538.068" y2="382.095"/>
			<path fill="#803F90" stroke="#000000" stroke-width="2.5626" stroke-miterlimit="10" d="M509.301,301.682"/>
		</g>
		<g>
			
				<line fill="none" stroke="#000000" stroke-width="2.5712" stroke-miterlimit="10" x1="509.311" y1="263.003" x2="570.474" y2="239.657"/>
			
				<line fill="none" stroke="#000000" stroke-width="2.5717" stroke-miterlimit="10" x1="509.32" y1="263.003" x2="448.134" y2="239.657"/>
		</g>
		<g>
			
				<line fill="none" stroke="#000000" stroke-width="2.5712" stroke-miterlimit="10" x1="527.021" y1="282.687" x2="588.184" y2="259.341"/>
			
				<line fill="none" stroke="#000000" stroke-width="2.5717" stroke-miterlimit="10" x1="491.603" y1="282.687" x2="430.417" y2="259.341"/>
		</g>
		<g>
			
				<rect x="495.869" y="269.254" transform="matrix(-0.7071 -0.7071 0.7071 -0.7071 669.541 842.7061)" fill="#803F90" stroke="#000000" stroke-width="2.5626" stroke-miterlimit="10" width="26.864" height="26.864"/>
			
				<line fill="#FFFFFF" stroke="#010101" stroke-width="2.5626" stroke-miterlimit="10" x1="499.879" y1="292.362" x2="518.875" y2="273.367"/>
			
				<line fill="#FFFFFF" stroke="#010101" stroke-width="2.5626" stroke-miterlimit="10" x1="494.733" y1="286.499" x2="513.729" y2="267.504"/>
			
				<line fill="#FFFFFF" stroke="#010101" stroke-width="2.5626" stroke-miterlimit="10" x1="505.819" y1="297.22" x2="524.815" y2="278.224"/>
		</g>
	</g>
	<g>
		<g>
			<g>
				<path fill="#A8C504" d="M134.972,227.346V105.76c0-1.931-0.149-3.828-0.446-5.688c-0.3-1.858-0.931-3.493-1.897-4.909
					c-0.969-1.412-2.381-2.527-4.239-3.346c-1.862-0.816-4.351-1.227-7.474-1.227c-2.531,0-5.504,0.373-8.924,1.115
					c-3.423,0.745-6.024,1.488-7.808,2.231c0.447,3.123,0.669,6.023,0.669,8.7v124.709h-34.58V105.76
					c0-1.931-0.149-3.828-0.446-5.688c-0.3-1.858-0.931-3.493-1.897-4.909c-0.97-1.412-2.381-2.527-4.239-3.346
					c-1.862-0.816-4.351-1.227-7.474-1.227c-2.531,0-5.466,0.411-8.813,1.227c-3.346,0.819-5.839,1.6-7.473,2.342v133.187H0V71.18
					c2.678-1.635,6.247-3.381,10.709-5.243c4.462-1.857,9.443-3.57,14.947-5.131c5.501-1.562,11.229-2.862,17.179-3.904
					c5.947-1.039,11.747-1.562,17.401-1.562c5.651,0,10.597,0.635,14.837,1.897c4.239,1.266,7.919,2.939,11.042,5.02
					c6.097-1.931,12.528-3.532,19.297-4.796c6.767-1.263,13.275-1.897,19.521-1.897c9.22,0,17.028,0.892,23.425,2.678
					c6.393,1.784,11.563,4.611,15.505,8.477c3.939,3.869,6.766,8.778,8.477,14.724c1.708,5.95,2.566,13.162,2.566,21.639v124.264
					H134.972z"/>
				<path fill="#A8C504" d="M309.207,126.731c0,4.908-0.93,9.001-2.789,12.27c-1.862,3.273-3.904,5.951-6.135,8.032
					c-2.678,2.381-5.577,4.316-8.7,5.801c3.866,1.042,7.362,2.676,10.485,4.907c2.527,1.935,4.909,4.612,7.139,8.033
					c2.231,3.423,3.346,7.956,3.346,13.608v47.965h-40.157c0-1.338,0-4.089,0-8.255c0-4.161,0.035-8.623,0.111-13.386
					c0.074-4.758,0.112-9.181,0.112-13.275c0-4.087,0-6.728,0-7.919c0-4.015-0.077-7.1-0.223-9.257
					c-0.15-2.155-0.708-3.756-1.673-4.797c-0.969-1.039-2.454-1.634-4.462-1.784c-2.008-0.146-4.874-0.224-8.589-0.224h-18.293
					v58.898h-39.935V57.571h70.275c9.22,0,16.471,1.228,21.752,3.681c5.278,2.454,9.22,5.542,11.825,9.259
					c2.6,3.719,4.239,7.661,4.907,11.824c0.67,4.166,1.004,8.032,1.004,11.601V126.731z M269.274,102.19
					c0-3.269-0.077-5.801-0.223-7.585c-0.15-1.784-0.634-3.123-1.45-4.015c-0.819-0.893-2.12-1.412-3.904-1.562
					c-1.785-0.146-4.316-0.223-7.585-0.223h-16.732v48.412h18.293c2.824,0,5.02-0.073,6.582-0.223
					c1.561-0.146,2.711-0.669,3.458-1.562c0.743-0.892,1.188-2.342,1.339-4.35c0.146-2.008,0.223-4.87,0.223-8.589V102.19z"/>
				<path fill="#A8C504" d="M364.979,227.346H325.49v-29.449h39.488V227.346z"/>
			</g>
		</g>
		<g>
			<path fill="#A8C504" d="M740.002,56.801c9.33,0,16.627,1.241,21.896,3.725c5.267,2.483,9.217,5.57,11.852,9.256
				c2.632,3.689,4.25,7.64,4.854,11.852c0.6,4.215,0.904,8.127,0.904,11.739v33.636c0,4.966-0.304,9.933-0.904,14.9
				c-0.604,4.966-2.145,9.445-4.627,13.431c-2.485,3.989-6.248,7.224-11.287,9.708c-5.044,2.481-12.004,3.725-20.882,3.725h-13.545
				h-18.287v59.596H670.02V56.801H740.002z M709.976,88.18v49.439h18.287c2.857,0,5.04-0.074,6.545-0.225
				c1.504-0.149,2.632-0.678,3.386-1.581c0.752-0.903,1.204-2.37,1.356-4.403c0.148-2.032,0.225-4.853,0.225-8.466v-21.446
				c0-3.16-0.077-5.644-0.225-7.449c-0.152-1.806-0.642-3.16-1.468-4.063c-0.829-0.904-2.145-1.429-3.951-1.581
				c-1.806-0.148-4.367-0.226-7.674-0.226H709.976z"/>
			<path fill="#A8C504" d="M879.512,228.369v-46.73h-34.991v46.73h-40.41V103.756c0-7.372,1.276-14.109,3.838-20.204
				c2.557-6.096,6.281-11.287,11.175-15.576c4.888-4.29,10.908-7.637,18.06-10.046c7.145-2.405,15.386-3.612,24.718-3.612
				c9.782,0,18.322,1.207,25.624,3.612c7.297,2.41,13.353,5.834,18.172,10.271c4.815,4.441,8.426,9.673,10.836,15.69
				c2.405,6.021,3.613,12.642,3.613,19.865v124.612H879.512z M879.512,150.035v-46.278c0-2.105-0.192-4.289-0.564-6.546
				c-0.379-2.257-1.168-4.289-2.372-6.095c-1.206-1.807-2.934-3.309-5.192-4.515c-2.257-1.204-5.344-1.807-9.255-1.807
				c-4.063,0-7.264,0.603-9.594,1.807c-2.335,1.206-4.103,2.708-5.306,4.515c-1.206,1.806-1.958,3.837-2.258,6.095
				c-0.302,2.257-0.45,4.441-0.45,6.546v46.278H879.512z"/>
			<path fill="#A8C504" d="M983.356,228.369h-40.41V70.346c2.709-1.655,6.323-3.421,10.838-5.305
				c4.515-1.879,9.555-3.612,15.123-5.192c5.567-1.581,11.362-2.896,17.383-3.951c6.018-1.052,11.887-1.581,17.608-1.581
				c18.659,0,32.132,3.803,40.41,11.401c8.276,7.601,12.416,19.83,12.416,36.684v125.966h-40.41V105.337
				c0-4.063-1.166-7.637-3.499-10.723c-2.335-3.083-6.66-4.627-12.981-4.627c-2.56,0-5.531,0.416-8.917,1.241
				c-3.386,0.829-5.908,1.619-7.562,2.37V228.369z"/>
			<path fill="#A8C504" d="M1194.201,182.09c0,6.173-1.094,12.044-3.274,17.608c-2.182,5.571-5.529,10.498-10.044,14.788
				c-4.515,4.288-10.198,7.674-17.046,10.159c-6.85,2.482-14.938,3.724-24.268,3.724h-57.566V56.801h57.566
				c9.33,0,17.418,1.206,24.268,3.612c6.847,2.408,12.531,5.721,17.046,9.933c4.515,4.215,7.861,9.069,10.044,14.561
				c2.18,5.495,3.274,11.326,3.274,17.495V182.09z M1121.962,197.668h14.674c5.419,0,9.707-1.504,12.868-4.515
				c3.161-3.009,4.74-6.695,4.74-11.063v-79.688c0-4.364-1.578-8.05-4.74-11.063c-3.161-3.008-7.449-4.515-12.868-4.515h-14.674
				V197.668z"/>
			<path fill="#A8C504" d="M1290.821,228.369v-46.73h-34.991v46.73h-40.41V103.756c0-7.372,1.276-14.109,3.838-20.204
				c2.557-6.096,6.281-11.287,11.175-15.576c4.887-4.29,10.908-7.637,18.06-10.046c7.145-2.405,15.386-3.612,24.718-3.612
				c9.782,0,18.322,1.207,25.624,3.612c7.297,2.41,13.353,5.834,18.172,10.271c4.815,4.441,8.426,9.673,10.835,15.69
				c2.405,6.021,3.613,12.642,3.613,19.865v124.612H1290.821z M1290.821,150.035v-46.278c0-2.105-0.192-4.289-0.564-6.546
				c-0.379-2.257-1.168-4.289-2.372-6.095c-1.206-1.807-2.934-3.309-5.192-4.515c-2.257-1.204-5.344-1.807-9.255-1.807
				c-4.063,0-7.264,0.603-9.594,1.807c-2.335,1.206-4.103,2.708-5.306,4.515c-1.206,1.806-1.958,3.837-2.258,6.095
				c-0.302,2.257-0.45,4.441-0.45,6.546v46.278H1290.821z"/>
		</g>
	</g>
</g>
</svg>
